  0
SECTION
  2
HEADER
  9
$ACADVER
  1
AC1009
  0
ENDSEC
  0
SECTION
  2
TABLES
  0
TABLE
  2
LAYER
 70
3
  0
LAYER
  2
CUT
 70
0
 62
1
  6
CONTINUOUS
  0
LAYER
  2
SCORE
 70
0
 62
3
  6
CONTINUOUS
  0
LAYER
  2
TEXT
 70
0
 62
7
  6
CONTINUOUS
  0
LAYER
  2
ORIGIN
 70
0
 62
4
  6
CONTINUOUS
  0
ENDSEC
  0
SECTION
  2
ENTITIES
  0
LINE
  8
CUT
 10
0.000
 20
0.000
 30
0.0
 11
520.000
 21
0.000
 31
0.0
  0
LINE
  8
CUT
 10
520.000
 20
0.000
 30
0.0
 11
520.000
 21
530.000
 31
0.0
  0
LINE
  8
CUT
 10
520.000
 20
530.000
 30
0.0
 11
0.000
 21
530.000
 31
0.0
  0
LINE
  8
CUT
 10
0.000
 20
530.000
 30
0.0
 11
0.000
 21
0.000
 31
0.0
  0
CIRCLE
  8
CUT
 10
15.000
 20
15.000
 30
0.0
 40
3.500
  0
CIRCLE
  8
CUT
 10
505.000
 20
15.000
 30
0.0
 40
3.500
  0
CIRCLE
  8
CUT
 10
15.000
 20
515.000
 30
0.0
 40
3.500
  0
CIRCLE
  8
CUT
 10
505.000
 20
515.000
 30
0.0
 40
3.500
  0
CIRCLE
  8
CUT
 10
8.000
 20
12.000
 30
0.0
 40
1.500
  0
CIRCLE
  8
CUT
 10
8.000
 20
20.000
 30
0.0
 40
1.500
  0
CIRCLE
  8
CUT
 10
8.000
 20
28.000
 30
0.0
 40
1.500
  0
CIRCLE
  8
CUT
 10
20.000
 20
12.000
 30
0.0
 40
1.500
  0
CIRCLE
  8
CUT
 10
20.000
 20
20.000
 30
0.0
 40
1.500
  0
CIRCLE
  8
CUT
 10
20.000
 20
28.000
 30
0.0
 40
1.500
  0
CIRCLE
  8
CUT
 10
32.000
 20
12.000
 30
0.0
 40
1.500
  0
CIRCLE
  8
CUT
 10
32.000
 20
20.000
 30
0.0
 40
1.500
  0
CIRCLE
  8
CUT
 10
32.000
 20
28.000
 30
0.0
 40
1.500
  0
CIRCLE
  8
CUT
 10
8.000
 20
502.000
 30
0.0
 40
1.500
  0
CIRCLE
  8
CUT
 10
8.000
 20
510.000
 30
0.0
 40
1.500
  0
CIRCLE
  8
CUT
 10
8.000
 20
518.000
 30
0.0
 40
1.500
  0
CIRCLE
  8
CUT
 10
20.000
 20
502.000
 30
0.0
 40
1.500
  0
CIRCLE
  8
CUT
 10
20.000
 20
510.000
 30
0.0
 40
1.500
  0
CIRCLE
  8
CUT
 10
20.000
 20
518.000
 30
0.0
 40
1.500
  0
CIRCLE
  8
CUT
 10
32.000
 20
502.000
 30
0.0
 40
1.500
  0
CIRCLE
  8
CUT
 10
32.000
 20
510.000
 30
0.0
 40
1.500
  0
CIRCLE
  8
CUT
 10
32.000
 20
518.000
 30
0.0
 40
1.500
  0
CIRCLE
  8
CUT
 10
488.000
 20
12.000
 30
0.0
 40
1.500
  0
CIRCLE
  8
CUT
 10
488.000
 20
20.000
 30
0.0
 40
1.500
  0
CIRCLE
  8
CUT
 10
488.000
 20
28.000
 30
0.0
 40
1.500
  0
CIRCLE
  8
CUT
 10
500.000
 20
12.000
 30
0.0
 40
1.500
  0
CIRCLE
  8
CUT
 10
500.000
 20
20.000
 30
0.0
 40
1.500
  0
CIRCLE
  8
CUT
 10
500.000
 20
28.000
 30
0.0
 40
1.500
  0
CIRCLE
  8
CUT
 10
512.000
 20
12.000
 30
0.0
 40
1.500
  0
CIRCLE
  8
CUT
 10
512.000
 20
20.000
 30
0.0
 40
1.500
  0
CIRCLE
  8
CUT
 10
512.000
 20
28.000
 30
0.0
 40
1.500
  0
CIRCLE
  8
CUT
 10
488.000
 20
502.000
 30
0.0
 40
1.500
  0
CIRCLE
  8
CUT
 10
488.000
 20
510.000
 30
0.0
 40
1.500
  0
CIRCLE
  8
CUT
 10
488.000
 20
518.000
 30
0.0
 40
1.500
  0
CIRCLE
  8
CUT
 10
500.000
 20
502.000
 30
0.0
 40
1.500
  0
CIRCLE
  8
CUT
 10
500.000
 20
510.000
 30
0.0
 40
1.500
  0
CIRCLE
  8
CUT
 10
500.000
 20
518.000
 30
0.0
 40
1.500
  0
CIRCLE
  8
CUT
 10
512.000
 20
502.000
 30
0.0
 40
1.500
  0
CIRCLE
  8
CUT
 10
512.000
 20
510.000
 30
0.0
 40
1.500
  0
CIRCLE
  8
CUT
 10
512.000
 20
518.000
 30
0.0
 40
1.500
  0
CIRCLE
  8
CUT
 10
80.000
 20
80.000
 30
0.0
 40
20.000
  0
CIRCLE
  8
CUT
 10
80.000
 20
115.000
 30
0.0
 40
7.000
  0
CIRCLE
  8
CUT
 10
80.000
 20
128.000
 30
0.0
 40
6.000
  0
LINE
  8
CUT
 10
150.000
 20
0.000
 30
0.0
 11
190.000
 21
0.000
 31
0.0
  0
LINE
  8
CUT
 10
190.000
 20
0.000
 30
0.0
 11
190.000
 21
5.000
 31
0.0
  0
LINE
  8
CUT
 10
190.000
 20
5.000
 30
0.0
 11
150.000
 21
5.000
 31
0.0
  0
LINE
  8
CUT
 10
150.000
 20
5.000
 30
0.0
 11
150.000
 21
0.000
 31
0.0
  0
LINE
  8
CUT
 10
210.000
 20
0.000
 30
0.0
 11
250.000
 21
0.000
 31
0.0
  0
LINE
  8
CUT
 10
250.000
 20
0.000
 30
0.0
 11
250.000
 21
5.000
 31
0.0
  0
LINE
  8
CUT
 10
250.000
 20
5.000
 30
0.0
 11
210.000
 21
5.000
 31
0.0
  0
LINE
  8
CUT
 10
210.000
 20
5.000
 30
0.0
 11
210.000
 21
0.000
 31
0.0
  0
LINE
  8
CUT
 10
270.000
 20
0.000
 30
0.0
 11
310.000
 21
0.000
 31
0.0
  0
LINE
  8
CUT
 10
310.000
 20
0.000
 30
0.0
 11
310.000
 21
5.000
 31
0.0
  0
LINE
  8
CUT
 10
310.000
 20
5.000
 30
0.0
 11
270.000
 21
5.000
 31
0.0
  0
LINE
  8
CUT
 10
270.000
 20
5.000
 30
0.0
 11
270.000
 21
0.000
 31
0.0
  0
LINE
  8
CUT
 10
330.000
 20
0.000
 30
0.0
 11
370.000
 21
0.000
 31
0.0
  0
LINE
  8
CUT
 10
370.000
 20
0.000
 30
0.0
 11
370.000
 21
5.000
 31
0.0
  0
LINE
  8
CUT
 10
370.000
 20
5.000
 30
0.0
 11
330.000
 21
5.000
 31
0.0
  0
LINE
  8
CUT
 10
330.000
 20
5.000
 30
0.0
 11
330.000
 21
0.000
 31
0.0
  0
TEXT
  8
TEXT
 10
15.000
 20
510.000
 30
0.0
 40
5.000
  1
BOTTOM_PANEL
  0
TEXT
  8
TEXT
 10
15.000
 20
504.000
 30
0.0
 40
3.000
  1
PMMA透明 t=5.0mm(加厚)mm
  0
TEXT
  8
TEXT
 10
15.000
 20
500.000
 30
0.0
 40
3.000
  1
QTY: 1
  0
TEXT
  8
TEXT
 10
15.000
 20
496.000
 30
0.0
 40
2.500
  1
DAYU TT310 V2
  0
ENDSEC
  0
EOF
