  0
SECTION
  2
HEADER
  9
$ACADVER
  1
AC1009
  0
ENDSEC
  0
SECTION
  2
TABLES
  0
TABLE
  2
LAYER
 70
3
  0
LAYER
  2
CUT
 70
0
 62
1
  6
CONTINUOUS
  0
LAYER
  2
SCORE
 70
0
 62
3
  6
CONTINUOUS
  0
LAYER
  2
TEXT
 70
0
 62
7
  6
CONTINUOUS
  0
LAYER
  2
ORIGIN
 70
0
 62
4
  6
CONTINUOUS
  0
ENDSEC
  0
SECTION
  2
ENTITIES
  0
LINE
  8
CUT
 10
0.000
 20
0.000
 30
0.0
 11
520.000
 21
0.000
 31
0.0
  0
LINE
  8
CUT
 10
520.000
 20
0.000
 30
0.0
 11
520.000
 21
745.000
 31
0.0
  0
LINE
  8
CUT
 10
520.000
 20
745.000
 30
0.0
 11
0.000
 21
745.000
 31
0.0
  0
LINE
  8
CUT
 10
0.000
 20
745.000
 30
0.0
 11
0.000
 21
0.000
 31
0.0
  0
LINE
  8
CUT
 10
10.000
 20
105.000
 30
0.0
 11
25.000
 21
105.000
 31
0.0
  0
LINE
  8
CUT
 10
25.000
 20
105.000
 30
0.0
 11
25.000
 21
135.000
 31
0.0
  0
LINE
  8
CUT
 10
25.000
 20
135.000
 30
0.0
 11
10.000
 21
135.000
 31
0.0
  0
LINE
  8
CUT
 10
10.000
 20
135.000
 30
0.0
 11
10.000
 21
105.000
 31
0.0
  0
CIRCLE
  8
CUT
 10
10.000
 20
120.000
 30
0.0
 40
3.000
  0
LINE
  8
CUT
 10
10.000
 20
357.500
 30
0.0
 11
25.000
 21
357.500
 31
0.0
  0
LINE
  8
CUT
 10
25.000
 20
357.500
 30
0.0
 11
25.000
 21
387.500
 31
0.0
  0
LINE
  8
CUT
 10
25.000
 20
387.500
 30
0.0
 11
10.000
 21
387.500
 31
0.0
  0
LINE
  8
CUT
 10
10.000
 20
387.500
 30
0.0
 11
10.000
 21
357.500
 31
0.0
  0
CIRCLE
  8
CUT
 10
10.000
 20
372.500
 30
0.0
 40
3.000
  0
LINE
  8
CUT
 10
10.000
 20
610.000
 30
0.0
 11
25.000
 21
610.000
 31
0.0
  0
LINE
  8
CUT
 10
25.000
 20
610.000
 30
0.0
 11
25.000
 21
640.000
 31
0.0
  0
LINE
  8
CUT
 10
25.000
 20
640.000
 30
0.0
 11
10.000
 21
640.000
 31
0.0
  0
LINE
  8
CUT
 10
10.000
 20
640.000
 30
0.0
 11
10.000
 21
610.000
 31
0.0
  0
CIRCLE
  8
CUT
 10
10.000
 20
625.000
 30
0.0
 40
3.000
  0
CIRCLE
  8
CUT
 10
505.000
 20
150.000
 30
0.0
 40
7.000
  0
CIRCLE
  8
CUT
 10
505.000
 20
150.000
 30
0.0
 40
5.000
  0
CIRCLE
  8
CUT
 10
505.000
 20
372.500
 30
0.0
 40
7.000
  0
CIRCLE
  8
CUT
 10
505.000
 20
372.500
 30
0.0
 40
5.000
  0
CIRCLE
  8
CUT
 10
505.000
 20
595.000
 30
0.0
 40
7.000
  0
CIRCLE
  8
CUT
 10
505.000
 20
595.000
 30
0.0
 40
5.000
  0
LINE
  8
CUT
 10
437.000
 20
342.500
 30
0.0
 11
447.000
 21
342.500
 31
0.0
  0
LINE
  8
CUT
 10
447.000
 20
342.500
 30
0.0
 11
447.000
 21
402.500
 31
0.0
  0
LINE
  8
CUT
 10
447.000
 20
402.500
 30
0.0
 11
437.000
 21
402.500
 31
0.0
  0
LINE
  8
CUT
 10
437.000
 20
402.500
 30
0.0
 11
437.000
 21
342.500
 31
0.0
  0
CIRCLE
  8
CUT
 10
50.000
 20
10.000
 30
0.0
 40
3.500
  0
CIRCLE
  8
CUT
 10
50.000
 20
735.000
 30
0.0
 40
3.500
  0
CIRCLE
  8
CUT
 10
130.000
 20
10.000
 30
0.0
 40
3.500
  0
CIRCLE
  8
CUT
 10
130.000
 20
735.000
 30
0.0
 40
3.500
  0
CIRCLE
  8
CUT
 10
210.000
 20
10.000
 30
0.0
 40
3.500
  0
CIRCLE
  8
CUT
 10
210.000
 20
735.000
 30
0.0
 40
3.500
  0
CIRCLE
  8
CUT
 10
290.000
 20
10.000
 30
0.0
 40
3.500
  0
CIRCLE
  8
CUT
 10
290.000
 20
735.000
 30
0.0
 40
3.500
  0
CIRCLE
  8
CUT
 10
370.000
 20
10.000
 30
0.0
 40
3.500
  0
CIRCLE
  8
CUT
 10
370.000
 20
735.000
 30
0.0
 40
3.500
  0
CIRCLE
  8
CUT
 10
450.000
 20
10.000
 30
0.0
 40
3.500
  0
CIRCLE
  8
CUT
 10
450.000
 20
735.000
 30
0.0
 40
3.500
  0
TEXT
  8
TEXT
 10
15.000
 20
725.000
 30
0.0
 40
5.000
  1
FRONT_DOOR
  0
TEXT
  8
TEXT
 10
15.000
 20
719.000
 30
0.0
 40
3.000
  1
PMMA透明 t=5.0mm(加厚)mm
  0
TEXT
  8
TEXT
 10
15.000
 20
715.000
 30
0.0
 40
3.000
  1
QTY: 1
  0
TEXT
  8
TEXT
 10
15.000
 20
711.000
 30
0.0
 40
2.500
  1
DAYU TT310 V2
  0
TEXT
  8
TEXT
 10
15.000
 20
20.000
 30
0.0
 40
4.000
  1
← 铰链侧
  0
ENDSEC
  0
EOF
