  0
SECTION
  2
HEADER
  9
$ACADVER
  1
AC1009
  0
ENDSEC
  0
SECTION
  2
TABLES
  0
TABLE
  2
LAYER
 70
3
  0
LAYER
  2
CUT
 70
0
 62
1
  6
CONTINUOUS
  0
LAYER
  2
SCORE
 70
0
 62
3
  6
CONTINUOUS
  0
LAYER
  2
TEXT
 70
0
 62
7
  6
CONTINUOUS
  0
LAYER
  2
ORIGIN
 70
0
 62
4
  6
CONTINUOUS
  0
ENDSEC
  0
SECTION
  2
ENTITIES
  0
LINE
  8
CUT
 10
0.000
 20
0.000
 30
0.0
 11
530.000
 21
0.000
 31
0.0
  0
LINE
  8
CUT
 10
530.000
 20
0.000
 30
0.0
 11
530.000
 21
770.000
 31
0.0
  0
LINE
  8
CUT
 10
530.000
 20
770.000
 30
0.0
 11
0.000
 21
770.000
 31
0.0
  0
LINE
  8
CUT
 10
0.000
 20
770.000
 30
0.0
 11
0.000
 21
0.000
 31
0.0
  0
CIRCLE
  8
CUT
 10
15.000
 20
15.000
 30
0.0
 40
3.500
  0
CIRCLE
  8
CUT
 10
515.000
 20
15.000
 30
0.0
 40
3.500
  0
CIRCLE
  8
CUT
 10
15.000
 20
755.000
 30
0.0
 40
3.500
  0
CIRCLE
  8
CUT
 10
515.000
 20
755.000
 30
0.0
 40
3.500
  0
CIRCLE
  8
CUT
 10
10.000
 20
100.000
 30
0.0
 40
3.500
  0
CIRCLE
  8
CUT
 10
520.000
 20
100.000
 30
0.0
 40
3.500
  0
CIRCLE
  8
CUT
 10
10.000
 20
200.000
 30
0.0
 40
3.500
  0
CIRCLE
  8
CUT
 10
520.000
 20
200.000
 30
0.0
 40
3.500
  0
CIRCLE
  8
CUT
 10
10.000
 20
300.000
 30
0.0
 40
3.500
  0
CIRCLE
  8
CUT
 10
520.000
 20
300.000
 30
0.0
 40
3.500
  0
CIRCLE
  8
CUT
 10
10.000
 20
400.000
 30
0.0
 40
3.500
  0
CIRCLE
  8
CUT
 10
520.000
 20
400.000
 30
0.0
 40
3.500
  0
CIRCLE
  8
CUT
 10
10.000
 20
500.000
 30
0.0
 40
3.500
  0
CIRCLE
  8
CUT
 10
520.000
 20
500.000
 30
0.0
 40
3.500
  0
CIRCLE
  8
CUT
 10
10.000
 20
600.000
 30
0.0
 40
3.500
  0
CIRCLE
  8
CUT
 10
520.000
 20
600.000
 30
0.0
 40
3.500
  0
CIRCLE
  8
CUT
 10
265.000
 20
690.000
 30
0.0
 40
60.000
  0
CIRCLE
  8
CUT
 10
265.000
 20
690.000
 30
0.0
 40
52.500
  0
CIRCLE
  8
CUT
 10
302.123
 20
727.123
 30
0.0
 40
1.750
  0
CIRCLE
  8
CUT
 10
227.877
 20
727.123
 30
0.0
 40
1.750
  0
CIRCLE
  8
CUT
 10
227.877
 20
652.877
 30
0.0
 40
1.750
  0
CIRCLE
  8
CUT
 10
302.123
 20
652.877
 30
0.0
 40
1.750
  0
TEXT
  8
TEXT
 10
15.000
 20
750.000
 30
0.0
 40
5.000
  1
SIDE_PANEL_Y2
  0
TEXT
  8
TEXT
 10
15.000
 20
744.000
 30
0.0
 40
3.000
  1
PMMA透明 t=4.0mmmm
  0
TEXT
  8
TEXT
 10
15.000
 20
740.000
 30
0.0
 40
3.000
  1
QTY: 2
  0
TEXT
  8
TEXT
 10
15.000
 20
736.000
 30
0.0
 40
2.500
  1
DAYU TT310 V2
  0
ENDSEC
  0
EOF
