  0
SECTION
  2
HEADER
  9
$ACADVER
  1
AC1009
  0
ENDSEC
  0
SECTION
  2
TABLES
  0
TABLE
  2
LAYER
 70
3
  0
LAYER
  2
CUT
 70
0
 62
1
  6
CONTINUOUS
  0
LAYER
  2
SCORE
 70
0
 62
3
  6
CONTINUOUS
  0
LAYER
  2
TEXT
 70
0
 62
7
  6
CONTINUOUS
  0
LAYER
  2
ORIGIN
 70
0
 62
4
  6
CONTINUOUS
  0
ENDSEC
  0
SECTION
  2
ENTITIES
  0
LINE
  8
CUT
 10
0.000
 20
0.000
 30
0.0
 11
520.000
 21
0.000
 31
0.0
  0
LINE
  8
CUT
 10
520.000
 20
0.000
 30
0.0
 11
520.000
 21
770.000
 31
0.0
  0
LINE
  8
CUT
 10
520.000
 20
770.000
 30
0.0
 11
0.000
 21
770.000
 31
0.0
  0
LINE
  8
CUT
 10
0.000
 20
770.000
 30
0.0
 11
0.000
 21
0.000
 31
0.0
  0
CIRCLE
  8
CUT
 10
15.000
 20
15.000
 30
0.0
 40
3.500
  0
CIRCLE
  8
CUT
 10
505.000
 20
15.000
 30
0.0
 40
3.500
  0
CIRCLE
  8
CUT
 10
15.000
 20
755.000
 30
0.0
 40
3.500
  0
CIRCLE
  8
CUT
 10
505.000
 20
755.000
 30
0.0
 40
3.500
  0
CIRCLE
  8
CUT
 10
10.000
 20
100.000
 30
0.0
 40
3.500
  0
CIRCLE
  8
CUT
 10
510.000
 20
100.000
 30
0.0
 40
3.500
  0
CIRCLE
  8
CUT
 10
10.000
 20
200.000
 30
0.0
 40
3.500
  0
CIRCLE
  8
CUT
 10
510.000
 20
200.000
 30
0.0
 40
3.500
  0
CIRCLE
  8
CUT
 10
10.000
 20
300.000
 30
0.0
 40
3.500
  0
CIRCLE
  8
CUT
 10
510.000
 20
300.000
 30
0.0
 40
3.500
  0
CIRCLE
  8
CUT
 10
10.000
 20
400.000
 30
0.0
 40
3.500
  0
CIRCLE
  8
CUT
 10
510.000
 20
400.000
 30
0.0
 40
3.500
  0
CIRCLE
  8
CUT
 10
10.000
 20
500.000
 30
0.0
 40
3.500
  0
CIRCLE
  8
CUT
 10
510.000
 20
500.000
 30
0.0
 40
3.500
  0
CIRCLE
  8
CUT
 10
10.000
 20
600.000
 30
0.0
 40
3.500
  0
CIRCLE
  8
CUT
 10
510.000
 20
600.000
 30
0.0
 40
3.500
  0
LINE
  8
SCORE
 10
156.000
 20
77.000
 30
0.0
 11
364.000
 21
77.000
 31
0.0
  0
LINE
  8
SCORE
 10
156.000
 20
92.000
 30
0.0
 11
364.000
 21
92.000
 31
0.0
  0
LINE
  8
SCORE
 10
156.000
 20
107.000
 30
0.0
 11
364.000
 21
107.000
 31
0.0
  0
LINE
  8
SCORE
 10
156.000
 20
122.000
 30
0.0
 11
364.000
 21
122.000
 31
0.0
  0
LINE
  8
SCORE
 10
156.000
 20
137.000
 30
0.0
 11
364.000
 21
137.000
 31
0.0
  0
LINE
  8
SCORE
 10
156.000
 20
152.000
 30
0.0
 11
364.000
 21
152.000
 31
0.0
  0
LINE
  8
SCORE
 10
156.000
 20
167.000
 30
0.0
 11
364.000
 21
167.000
 31
0.0
  0
LINE
  8
SCORE
 10
156.000
 20
182.000
 30
0.0
 11
364.000
 21
182.000
 31
0.0
  0
LINE
  8
SCORE
 10
156.000
 20
197.000
 30
0.0
 11
364.000
 21
197.000
 31
0.0
  0
LINE
  8
SCORE
 10
156.000
 20
212.000
 30
0.0
 11
364.000
 21
212.000
 31
0.0
  0
LINE
  8
SCORE
 10
156.000
 20
227.000
 30
0.0
 11
364.000
 21
227.000
 31
0.0
  0
LINE
  8
SCORE
 10
156.000
 20
242.000
 30
0.0
 11
364.000
 21
242.000
 31
0.0
  0
LINE
  8
SCORE
 10
156.000
 20
257.000
 30
0.0
 11
364.000
 21
257.000
 31
0.0
  0
LINE
  8
SCORE
 10
156.000
 20
272.000
 30
0.0
 11
364.000
 21
272.000
 31
0.0
  0
LINE
  8
SCORE
 10
156.000
 20
287.000
 30
0.0
 11
364.000
 21
287.000
 31
0.0
  0
LINE
  8
SCORE
 10
156.000
 20
302.000
 30
0.0
 11
364.000
 21
302.000
 31
0.0
  0
LINE
  8
SCORE
 10
156.000
 20
317.000
 30
0.0
 11
364.000
 21
317.000
 31
0.0
  0
LINE
  8
SCORE
 10
156.000
 20
332.000
 30
0.0
 11
364.000
 21
332.000
 31
0.0
  0
LINE
  8
SCORE
 10
156.000
 20
347.000
 30
0.0
 11
364.000
 21
347.000
 31
0.0
  0
LINE
  8
SCORE
 10
156.000
 20
362.000
 30
0.0
 11
364.000
 21
362.000
 31
0.0
  0
LINE
  8
SCORE
 10
156.000
 20
377.000
 30
0.0
 11
364.000
 21
377.000
 31
0.0
  0
CIRCLE
  8
CUT
 10
80.000
 20
150.000
 30
0.0
 40
20.000
  0
CIRCLE
  8
CUT
 10
80.000
 20
190.000
 30
0.0
 40
7.000
  0
CIRCLE
  8
CUT
 10
80.000
 20
205.000
 30
0.0
 40
6.000
  0
TEXT
  8
TEXT
 10
15.000
 20
750.000
 30
0.0
 40
5.000
  1
SIDE_PANEL_X2
  0
TEXT
  8
TEXT
 10
15.000
 20
744.000
 30
0.0
 40
3.000
  1
PMMA透明 t=4.0mmmm
  0
TEXT
  8
TEXT
 10
15.000
 20
740.000
 30
0.0
 40
3.000
  1
QTY: 2
  0
TEXT
  8
TEXT
 10
15.000
 20
736.000
 30
0.0
 40
2.500
  1
DAYU TT310 V2
  0
LINE
  8
ORIGIN
 10
-5.000
 20
0.000
 30
0.0
 11
5.000
 21
0.000
 31
0.0
  0
LINE
  8
ORIGIN
 10
0.000
 20
-5.000
 30
0.0
 11
0.000
 21
5.000
 31
0.0
  0
ENDSEC
  0
EOF
