  0
SECTION
  2
HEADER
  9
$ACADVER
  1
AC1009
  0
ENDSEC
  0
SECTION
  2
TABLES
  0
TABLE
  2
LAYER
 70
3
  0
LAYER
  2
CUT
 70
0
 62
1
  6
CONTINUOUS
  0
LAYER
  2
SCORE
 70
0
 62
3
  6
CONTINUOUS
  0
LAYER
  2
TEXT
 70
0
 62
7
  6
CONTINUOUS
  0
LAYER
  2
ORIGIN
 70
0
 62
4
  6
CONTINUOUS
  0
ENDSEC
  0
SECTION
  2
ENTITIES
  0
LINE
  8
CUT
 10
0.000
 20
0.000
 30
0.0
 11
520.000
 21
0.000
 31
0.0
  0
LINE
  8
CUT
 10
520.000
 20
0.000
 30
0.0
 11
520.000
 21
530.000
 31
0.0
  0
LINE
  8
CUT
 10
520.000
 20
530.000
 30
0.0
 11
0.000
 21
530.000
 31
0.0
  0
LINE
  8
CUT
 10
0.000
 20
530.000
 30
0.0
 11
0.000
 21
0.000
 31
0.0
  0
CIRCLE
  8
CUT
 10
15.000
 20
15.000
 30
0.0
 40
3.500
  0
CIRCLE
  8
CUT
 10
505.000
 20
15.000
 30
0.0
 40
3.500
  0
CIRCLE
  8
CUT
 10
15.000
 20
515.000
 30
0.0
 40
3.500
  0
CIRCLE
  8
CUT
 10
505.000
 20
515.000
 30
0.0
 40
3.500
  0
CIRCLE
  8
CUT
 10
50.000
 20
10.000
 30
0.0
 40
3.500
  0
CIRCLE
  8
CUT
 10
50.000
 20
520.000
 30
0.0
 40
3.500
  0
CIRCLE
  8
CUT
 10
150.000
 20
10.000
 30
0.0
 40
3.500
  0
CIRCLE
  8
CUT
 10
150.000
 20
520.000
 30
0.0
 40
3.500
  0
CIRCLE
  8
CUT
 10
250.000
 20
10.000
 30
0.0
 40
3.500
  0
CIRCLE
  8
CUT
 10
250.000
 20
520.000
 30
0.0
 40
3.500
  0
CIRCLE
  8
CUT
 10
350.000
 20
10.000
 30
0.0
 40
3.500
  0
CIRCLE
  8
CUT
 10
350.000
 20
520.000
 30
0.0
 40
3.500
  0
CIRCLE
  8
CUT
 10
450.000
 20
10.000
 30
0.0
 40
3.500
  0
CIRCLE
  8
CUT
 10
450.000
 20
520.000
 30
0.0
 40
3.500
  0
CIRCLE
  8
CUT
 10
10.000
 20
50.000
 30
0.0
 40
3.500
  0
CIRCLE
  8
CUT
 10
510.000
 20
50.000
 30
0.0
 40
3.500
  0
CIRCLE
  8
CUT
 10
10.000
 20
150.000
 30
0.0
 40
3.500
  0
CIRCLE
  8
CUT
 10
510.000
 20
150.000
 30
0.0
 40
3.500
  0
CIRCLE
  8
CUT
 10
10.000
 20
250.000
 30
0.0
 40
3.500
  0
CIRCLE
  8
CUT
 10
510.000
 20
250.000
 30
0.0
 40
3.500
  0
CIRCLE
  8
CUT
 10
10.000
 20
350.000
 30
0.0
 40
3.500
  0
CIRCLE
  8
CUT
 10
510.000
 20
350.000
 30
0.0
 40
3.500
  0
CIRCLE
  8
CUT
 10
10.000
 20
450.000
 30
0.0
 40
3.500
  0
CIRCLE
  8
CUT
 10
510.000
 20
450.000
 30
0.0
 40
3.500
  0
CIRCLE
  8
CUT
 10
260.000
 20
265.000
 30
0.0
 40
60.000
  0
CIRCLE
  8
CUT
 10
260.000
 20
265.000
 30
0.0
 40
52.500
  0
CIRCLE
  8
CUT
 10
297.123
 20
302.123
 30
0.0
 40
1.750
  0
CIRCLE
  8
CUT
 10
222.877
 20
302.123
 30
0.0
 40
1.750
  0
CIRCLE
  8
CUT
 10
222.877
 20
227.877
 30
0.0
 40
1.750
  0
CIRCLE
  8
CUT
 10
297.123
 20
227.877
 30
0.0
 40
1.750
  0
TEXT
  8
TEXT
 10
15.000
 20
510.000
 30
0.0
 40
5.000
  1
TOP_PANEL
  0
TEXT
  8
TEXT
 10
15.000
 20
504.000
 30
0.0
 40
3.000
  1
PMMA透明 t=3.0mmmm
  0
TEXT
  8
TEXT
 10
15.000
 20
500.000
 30
0.0
 40
3.000
  1
QTY: 1
  0
TEXT
  8
TEXT
 10
15.000
 20
496.000
 30
0.0
 40
2.500
  1
DAYU TT310 V2
  0
ENDSEC
  0
EOF
